<?xml version="1.0" encoding="UTF-8" standalone="no"?>
<!-- Created with Inkscape (http://www.inkscape.org/) -->

<svg
   version="1.1"
   id="svg1"
   width="1080"
   height="1080"
   viewBox="0 0 1080 1080"
   sodipodi:docname="RA_Logo_original.svg"
   inkscape:export-filename="Logo_RA_original_white.png"
   inkscape:export-xdpi="96"
   inkscape:export-ydpi="96"
   inkscape:version="1.4.2 (f4327f4, 2025-05-13)"
   xmlns:inkscape="http://www.inkscape.org/namespaces/inkscape"
   xmlns:sodipodi="http://sodipodi.sourceforge.net/DTD/sodipodi-0.dtd"
   xmlns="http://www.w3.org/2000/svg"
   xmlns:svg="http://www.w3.org/2000/svg">
  <defs
     id="defs1" />
  <sodipodi:namedview
     id="namedview1"
     pagecolor="#f5f5f5"
     bordercolor="#eeeeee"
     borderopacity="1"
     inkscape:showpageshadow="0"
     inkscape:pageopacity="0"
     inkscape:pagecheckerboard="0"
     inkscape:deskcolor="#505050"
     inkscape:zoom="0.50872405"
     inkscape:cx="408.86606"
     inkscape:cy="386.26049"
     inkscape:window-width="1920"
     inkscape:window-height="991"
     inkscape:window-x="-32000"
     inkscape:window-y="-32000"
     inkscape:window-maximized="0"
     inkscape:current-layer="g1" />
  <g
     inkscape:groupmode="layer"
     inkscape:label="Logo RA original"
     id="g1"
     style="display:inline">
    <g
       id="g17"
       inkscape:label="Logo RA original"
       transform="matrix(2.1359729,0,0,2.1438256,-921.75647,14.483165)"
       style="display:inline;stroke-width:0.467313;fill:none;stroke:#ffffff">
      <path
         d="M 655.00276,116.46898 540.46506,381.2685 c 20.58311,2.01613 50.49233,-1.58382 62.46826,-6.72131 11.95898,-5.13022 43.9356,-140.0134 63.30002,-34.25138 3.73987,20.42593 22.60169,30.01926 45.21692,26.25778 0,0 136.7651,-3.76246 145.416,-30.80788 13.98103,-43.70902 -163.21909,-20.04767 -160.79172,-79.68991 1.52249,-37.40877 100.59023,-4.43912 104.58175,-41.66645 6.22573,-58.06509 -91.44465,-79.9397 -145.65353,-97.92037 z"
         style="display:inline;fill:none;stroke:#ffffff;stroke-width:17.1504;stroke-dasharray:none"
         id="path16"
         sodipodi:nodetypes="ccssssaac" />
    </g>
    <text
       xml:space="preserve"
       style="font-style:normal;font-variant:normal;font-weight:normal;font-stretch:normal;font-size:49.121px;line-height:20;font-family:sans-serif;-inkscape-font-specification:sans-serif;text-align:start;letter-spacing:21.566px;word-spacing:0px;writing-mode:lr-tb;direction:ltr;text-anchor:start;fill:none;stroke:#ffffff;stroke-width:6.66666665;stroke-dasharray:none;paint-order:normal"
       x="-737.78052"
       y="463.31964"
       id="text17"
       transform="matrix(0.3639646,-0.8380625,1.0038853,0.43598026,0,0)"><tspan
         sodipodi:role="line"
         id="tspan17"
         x="-737.78052"
         y="463.31964"
         style="stroke-width:6.66666665;stroke-dasharray:none;fill:none;stroke:#ffffff">RACING ACTION</tspan></text>
  </g>
  <g
     inkscape:groupmode="layer"
     id="layer3"
     inkscape:label="Logo RA modern naked"
     style="display:none">
    <path
       d="M 443.32074,203.5061 171.4827,838.93086 285.91434,876.62458 421.78988,658.53591 545.59704,661.22592 659.98709,828.15958 906.25888,777.00464 592.69795,531.98975 825.51341,336.78291 Z m 68.63554,152.12557 99.58353,44.42435 -85.18926,92.8931 -70.91611,-53.8525 z"
       style="display:inline;fill:#000000;stroke:#000000;stroke-width:2"
       id="path17" />
  </g>
  <g
     inkscape:groupmode="layer"
     id="layer4"
     inkscape:label="Logo RA modern"
     style="display:inline" />
</svg>
